<svg width="151" height="33" viewBox="0 0 151 33" fill="none" xmlns="http://www.w3.org/2000/svg">
<path d="M0 15.418H13.5254V23.082H0V15.418Z" fill="#221112"/>
<path d="M48.0895 24.3893C50.7345 24.3893 53.0338 23.1571 54.9875 20.6926L61.7051 26.6885C60.1422 28.7322 58.1585 30.2951 55.754 31.3771C53.3494 32.459 50.6143 33 47.5485 33C43.551 33 40.0645 32.0232 37.0889 30.0697C34.1133 28.0861 32.0394 25.4413 30.8672 22.1352H25.9079V17.0861H29.9655V16.5V15.9139H25.9079V10.8648H30.8672C32.0394 7.55874 34.1133 4.92896 37.0889 2.97541C40.0645 0.991803 43.551 0 47.5485 0C50.6143 0 53.3494 0.540984 55.754 1.62295C58.1585 2.70492 60.1422 4.26776 61.7051 6.31148L54.9875 12.3074C53.0338 9.8429 50.7345 8.61065 48.0895 8.61065C45.8053 8.61065 43.9868 9.36202 42.6343 10.8648H50.3438V15.9139H40.6957V16.5V17.0861H50.3438V22.1352H42.6343C43.9868 23.638 45.8053 24.3893 48.0895 24.3893Z" fill="#221112"/>
<path d="M81.2251 13.209C83.6596 13.8101 85.5231 14.9071 86.8156 16.5C88.1381 18.0628 88.7993 19.9563 88.7993 22.1803C88.7993 24.0738 88.2733 25.847 87.2213 27.5C86.1994 29.123 84.6064 30.4454 82.4423 31.4672C80.2783 32.4891 77.5882 33 74.3722 33C72.148 33 69.9238 32.7596 67.6996 32.2787C65.5055 31.7978 63.5819 31.0915 61.9288 30.1598L65.5356 22.3156C66.828 23.0669 68.2106 23.638 69.6834 24.0287C71.1862 24.4194 72.6289 24.6148 74.0115 24.6148C75.2438 24.6148 76.2357 24.4044 76.9871 23.9836C77.7385 23.5628 78.1142 22.9618 78.1142 22.1803C78.1142 20.7377 76.8669 20.0164 74.3722 20.0164H70.1793V13.4795L74.823 8.7459H63.5518V0.72131H87.0861V7.2582L81.2251 13.209Z" fill="#221112"/>
<path d="M105.492 33C102.697 33 100.217 32.3538 98.0533 31.0615C95.9193 29.7391 94.2361 27.8456 93.0038 25.3811C91.8015 22.8866 91.2004 19.9262 91.2004 16.5C91.2004 13.0738 91.8015 10.1284 93.0038 7.66394C94.2361 5.1694 95.9193 3.27596 98.0533 1.98361C100.217 0.661202 102.697 0 105.492 0C108.288 0 110.752 0.661202 112.886 1.98361C115.05 3.27596 116.733 5.1694 117.936 7.66394C119.168 10.1284 119.784 13.0738 119.784 16.5C119.784 19.9262 119.168 22.8866 117.936 25.3811C116.733 27.8456 115.05 29.7391 112.886 31.0615C110.752 32.3538 108.288 33 105.492 33ZM105.492 24.4795C107.897 24.4795 109.099 21.8197 109.099 16.5C109.099 11.1803 107.897 8.52049 105.492 8.52049C103.088 8.52049 101.885 11.1803 101.885 16.5C101.885 21.8197 103.088 24.4795 105.492 24.4795Z" fill="#221112"/>
<path d="M136.708 33C133.913 33 131.433 32.3538 129.269 31.0615C127.135 29.7391 125.452 27.8456 124.22 25.3811C123.017 22.8866 122.416 19.9262 122.416 16.5C122.416 13.0738 123.017 10.1284 124.22 7.66394C125.452 5.1694 127.135 3.27596 129.269 1.98361C131.433 0.661202 133.913 0 136.708 0C139.503 0 141.968 0.661202 144.102 1.98361C146.266 3.27596 147.949 5.1694 149.152 7.66394C150.384 10.1284 151 13.0738 151 16.5C151 19.9262 150.384 22.8866 149.152 25.3811C147.949 27.8456 146.266 29.7391 144.102 31.0615C141.968 32.3538 139.503 33 136.708 33ZM136.708 24.4795C139.113 24.4795 140.315 21.8197 140.315 16.5C140.315 11.1803 139.113 8.52049 136.708 8.52049C134.304 8.52049 133.101 11.1803 133.101 16.5C133.101 21.8197 134.304 24.4795 136.708 24.4795Z" fill="#221112"/>
</svg>
