<svg width="31" height="16" viewBox="0 0 31 16" fill="none" xmlns="http://www.w3.org/2000/svg">
<path fill-rule="evenodd" clip-rule="evenodd" d="M9.04099 15.8889C9.72959 15.5929 10.0528 14.7933 9.73957 14.1611C9.65809 13.9967 8.79821 13.1399 7.22998 11.6605C5.91792 10.4227 4.84441 9.38873 4.84441 9.36272C4.84441 9.33677 10.5043 9.31552 17.422 9.31552L29.9995 9.31552L30.2907 9.17003C30.7387 8.94625 30.9694 8.58956 30.9971 8.07799C31.0245 7.57255 30.8583 7.21179 30.4602 6.91199L30.2062 6.72079L17.5253 6.70466C10.5508 6.69584 4.84441 6.66752 4.84441 6.64182C4.84441 6.61612 5.93002 5.56829 7.25694 4.31332C9.86095 1.85039 9.91732 1.7833 9.85058 1.22315C9.80611 0.849823 9.52243 0.409344 9.19422 0.203829C8.82504 -0.0273834 8.21488 -0.0681498 7.84556 0.113731C7.51709 0.27548 0.275227 7.13888 0.115516 7.43981C-0.0470373 7.74599 -0.0366631 8.2805 0.137982 8.59649C0.34005 8.96226 7.58065 15.7855 7.89842 15.9096C8.22611 16.0376 8.71568 16.0287 9.04099 15.8889Z" fill="#ED1C24"/>
</svg>
