<svg width="60" height="65" viewBox="0 0 60 65" fill="none" xmlns="http://www.w3.org/2000/svg">
<path fill-rule="evenodd" clip-rule="evenodd" d="M26.8905 0.26832C26.5401 0.443273 26.2455 0.722235 26.0428 1.07113C25.7649 1.54936 25.7322 1.74813 25.7322 2.95646V4.30718H23.4316C20.5982 4.30718 20.0418 4.43767 19.1839 5.30306C18.5199 5.97272 18.1966 6.83659 18.1966 7.94078V8.61449H11.5963C6.01474 8.61449 4.86066 8.64553 4.11803 8.81592C2.50806 9.18534 0.983743 10.5192 0.344476 12.1181L0.0484543 12.8585L0.0145442 27.7943C-0.0225057 44.1319 -0.0459916 43.5512 0.70229 44.8392C1.2176 45.726 2.15942 46.5919 3.09521 47.0391L3.94183 47.4436L16.5255 47.4777L29.1091 47.5116L29.7579 48.763C30.7024 50.5848 31.7357 51.8922 34.2396 54.4326C35.4641 55.675 36.7121 56.9767 37.0128 57.3251C37.9959 58.4641 38.5426 59.8841 38.5426 61.299C38.5426 62.6608 39.253 63.9293 40.3458 64.5188C40.866 64.7994 40.8681 64.7995 48.2133 64.7995C56.3848 64.7995 55.8896 64.8493 56.8588 63.9302C57.7731 63.063 57.8062 62.9076 57.9002 59.0353C57.9467 57.1192 58.0439 55.3234 58.1162 55.0447C58.1887 54.766 58.4277 54.1389 58.6476 53.6512C59.1358 52.5682 59.4635 51.6335 59.7356 50.5474C59.9214 49.8067 59.9463 47.9065 59.9838 31.624C60.021 15.5324 60.0038 13.4383 59.8292 12.751C59.4803 11.3771 58.6907 10.285 57.4697 9.48761C56.1555 8.62944 55.9825 8.61449 47.3408 8.61449H39.673V7.94078C39.673 6.83076 39.3591 6.00553 38.6742 5.31459C37.7975 4.43032 37.2797 4.30718 34.438 4.30718H32.1374V2.99687C32.1374 1.37657 31.8783 0.753653 31.0121 0.29163C30.5283 0.033572 30.2898 -0.000126331 28.9465 3.54617e-07C27.6527 3.54617e-07 27.348 0.0397796 26.8905 0.26832ZM30.0023 3.23036V4.30718H28.9348H27.8672V3.23036V2.15353H28.9348H30.0023V3.23036ZM37.1807 6.80428C37.388 7.01344 37.4722 7.27821 37.5133 7.84944L37.568 8.61449H28.9498H20.3317L20.3336 8.01273C20.3357 7.29189 20.5403 6.83937 20.9622 6.62198C21.2057 6.49656 22.9782 6.46831 29.0884 6.49289L36.903 6.52418L37.1807 6.80428ZM56.031 11.1277C56.359 11.2906 56.8265 11.6586 57.0701 11.9456C57.9096 12.935 57.8839 12.5272 57.8839 24.867V36.0061L57.5385 35.8972C57.3486 35.8374 56.741 35.7885 56.1884 35.7885C55.4024 35.7885 55.0625 35.8496 54.6268 36.0691L54.07 36.3499L53.6503 35.8552C52.6644 34.6935 50.7638 34.2942 49.3652 34.9549L48.7164 35.2614L48.236 34.7365C47.9717 34.4478 47.4309 34.0617 47.0343 33.8785C46.4033 33.5871 46.1923 33.5524 45.3479 33.6008C44.817 33.6313 44.2848 33.6999 44.1653 33.7532C43.9609 33.8443 43.9457 33.4737 43.9141 27.6233L43.8803 21.3963L44.2369 21.0546C44.9208 20.3993 44.9478 20.2554 44.9473 17.2671C44.947 14.6957 44.929 14.4757 44.6864 14.0743C44.0756 13.0638 43.5621 12.92 40.5907 12.9274C37.6848 12.9346 37.1639 13.1094 36.6438 14.252C36.445 14.6886 36.4127 15.105 36.4103 17.2582C36.4082 19.2185 36.4492 19.8629 36.601 20.2454C36.7632 20.6544 36.7684 20.7926 36.6324 21.103C36.5058 21.392 36.4566 23.8586 36.4075 32.368L36.3447 43.263L36.0074 42.6929C35.8219 42.3794 35.5734 41.7238 35.4552 41.236C35.2184 40.2598 35.0133 39.7884 34.5679 39.1971C34.3034 38.8461 34.2725 38.6727 34.2725 37.5384C34.2725 35.9658 34.0057 35.3348 33.1472 34.8768L32.6002 34.585H24.7102C15.8242 34.585 16.105 34.557 15.4207 35.5097L15.0568 36.0166V38.8926C15.0568 41.6744 15.0662 41.7827 15.3424 42.196C15.4994 42.4312 15.8186 42.7532 16.0517 42.9116L16.4755 43.1996H22.2318H27.9881L28.0475 43.4847C28.2175 44.3009 28.3696 45.1262 28.3696 45.2328C28.3696 45.3082 23.906 45.3533 16.4629 45.3533H4.55635L3.89285 45.0197C3.12761 44.6351 2.45895 43.8051 2.25374 42.9852C2.16406 42.627 2.12073 37.7765 2.12073 28.0881C2.12073 12.7015 2.10629 13.0718 2.74242 12.1706C3.14607 11.5987 3.81724 11.1262 4.48451 10.9441C4.95084 10.8168 10.2703 10.7887 30.2535 10.8075L55.4348 10.8315L56.031 11.1277ZM5.72323 13.1054C5.09741 13.3305 4.77476 13.631 4.49205 14.252C4.29261 14.6901 4.26134 15.1022 4.26134 17.2925C4.26134 20.0879 4.36344 20.5715 5.07279 21.1342C5.66358 21.6029 6.2766 21.6841 8.89721 21.6408C11.3341 21.6004 11.3785 21.5947 11.8755 21.2626C12.7358 20.688 12.7962 20.4261 12.7956 17.2733C12.7952 14.6955 12.7773 14.4757 12.5346 14.0743C12.1802 13.488 11.826 13.2176 11.202 13.0572C10.4191 12.8559 6.31616 12.892 5.72323 13.1054ZM16.5577 13.0899C15.9535 13.2913 15.6432 13.5362 15.3256 14.062C15.0737 14.4788 15.0577 14.6715 15.0573 17.2733C15.0567 20.4261 15.1171 20.688 15.9774 21.2626C16.4743 21.5947 16.5188 21.6004 18.9557 21.6408C21.5763 21.6841 22.1893 21.6029 22.7801 21.1342C23.4895 20.5715 23.5916 20.0879 23.5916 17.2925C23.5916 15.1022 23.5603 14.6901 23.3608 14.252C22.8352 13.0974 22.3271 12.9317 19.3269 12.9371C17.8977 12.9397 16.8319 12.9984 16.5577 13.0899ZM27.1959 13.1066C26.597 13.322 26.1295 13.7465 25.9044 14.2796C25.6602 14.8577 25.6594 19.7222 25.9035 20.3112C26.1219 20.8385 26.7387 21.3631 27.3374 21.5308C27.9439 21.7007 32.0608 21.7007 32.6673 21.5308C33.266 21.3631 33.8828 20.8385 34.1012 20.3112C34.3444 19.7239 34.3444 14.861 34.1012 14.2737C33.8828 13.7464 33.266 13.2218 32.6673 13.0541C31.9557 12.8548 27.785 12.8948 27.1959 13.1066ZM48.7095 13.0899C48.1052 13.2913 47.7949 13.5362 47.4773 14.062C47.2255 14.4788 47.2094 14.6715 47.209 17.2733C47.2084 20.4261 47.2688 20.688 48.1291 21.2626C48.6261 21.5947 48.6705 21.6004 51.1074 21.6408C53.728 21.6841 54.341 21.6029 54.9318 21.1342C55.6412 20.5715 55.7433 20.0879 55.7433 17.2925C55.7433 15.1022 55.712 14.6901 55.5126 14.252C54.987 13.0974 54.4788 12.9317 51.4787 12.9371C50.0494 12.9397 48.9836 12.9984 48.7095 13.0899ZM10.661 17.2955V19.5155L8.55736 19.4808L6.45368 19.4461L6.41902 17.4242C6.3998 16.3122 6.41224 15.3288 6.4464 15.2389C6.49375 15.1146 7.00529 15.0755 8.58487 15.0755H10.661V17.2955ZM21.3992 17.2925V19.4461L19.2955 19.4808L17.1919 19.5155V17.2925V15.0694L19.2955 15.1041L21.3992 15.1388V17.2925ZM32.1374 17.2925V19.5094H30.0023H27.8672V17.2925V15.0755H30.0023H32.1374V17.2925ZM42.8128 17.2239V19.3722L42.2143 18.997C41.1646 18.3389 39.8288 18.2165 38.7624 18.6808C38.5591 18.7692 38.5426 18.6443 38.5426 17.0105C38.5426 16.039 38.5803 15.2063 38.6264 15.16C38.6724 15.1135 39.6331 15.0755 40.7615 15.0755H42.8128V17.2239ZM53.5509 17.2925V19.4461L51.4473 19.4808L49.3436 19.5155V17.2925V15.0694L51.4473 15.1041L53.5509 15.1388V17.2925ZM40.9211 20.7544C41.1565 20.8817 41.4524 21.1802 41.5786 21.4176C41.7937 21.8221 41.8083 22.3452 41.812 29.7689C41.8162 38.1327 41.8015 37.9186 42.3963 38.2383C43.1025 38.6176 43.7763 38.1592 43.9529 37.1792C44.1085 36.3164 44.7214 35.7252 45.4604 35.7252C46.5512 35.7252 47.0672 36.3666 47.1718 37.8522C47.2549 39.0317 47.502 39.4014 48.2037 39.395C48.4508 39.3929 48.7495 39.317 48.8677 39.2264C49.1257 39.0286 49.3436 38.4891 49.3436 38.048C49.3436 37.6056 50.0624 36.9072 50.6277 36.8002C51.2157 36.6889 51.894 37.01 52.2302 37.5588C52.4227 37.8731 52.4834 38.1909 52.4834 38.8854C52.4834 39.7258 52.5127 39.8282 52.8505 40.1689C53.319 40.6415 53.8781 40.6642 54.3102 40.2282C54.4797 40.0572 54.6185 39.7704 54.6185 39.5908C54.6185 37.8235 56.9396 37.24 57.6829 38.8203C57.882 39.2434 57.8973 39.7395 57.8539 44.3777C57.8003 50.1177 57.7759 50.2992 56.7536 52.5894C55.9357 54.4216 55.8598 54.8922 55.768 58.6981L55.686 62.0981L55.3336 62.4037L54.9812 62.7092H48.2133H41.4453L41.1076 62.4162C40.8005 62.1499 40.7605 62.0092 40.6656 60.8643C40.4332 58.0587 39.8326 57.0536 36.1547 53.314C34.6926 51.8272 33.2435 50.2726 32.9347 49.8594C31.2879 47.6559 30.3042 45.0946 30.0515 42.3519C29.9548 41.3023 30.192 40.6507 30.8086 40.2714C31.5097 39.8402 32.6915 40.0532 33.0187 40.6699C33.0929 40.8098 33.2627 41.3546 33.3961 41.8801C33.743 43.2485 34.2991 44.2154 35.2679 45.1343C36.6316 46.4277 37.6975 46.7733 38.2642 46.1059C38.4637 45.8709 38.4845 44.9494 38.5426 33.7668C38.6048 21.7928 38.6078 21.6783 38.8655 21.324C39.1534 20.9283 39.8482 20.5234 40.2401 20.5232C40.3793 20.5231 40.6857 20.6271 40.9211 20.7544ZM5.32335 24.1204C4.39258 24.6922 4.32413 24.9334 4.27703 27.8074C4.23195 30.5578 4.30102 31.0249 4.84986 31.6828C5.42106 32.3675 5.7373 32.4314 8.55811 32.4314C10.9553 32.4314 11.1442 32.414 11.6695 32.1463C11.9772 31.9895 12.3565 31.6676 12.5125 31.4308C12.7861 31.0157 12.7961 30.8984 12.7961 28.1241C12.7961 25.3498 12.7861 25.233 12.5135 24.829C11.8833 23.8948 11.8407 23.8839 8.67404 23.8459C5.8487 23.8121 5.8217 23.8144 5.32335 24.1204ZM16.3128 23.959C16.1401 24.0286 15.8664 24.2102 15.7042 24.3628C15.0906 24.9407 15.0568 25.1391 15.0568 28.1623C15.0568 30.897 15.0671 31.016 15.3404 31.4308C15.4964 31.6676 15.8756 31.9895 16.1833 32.1463C16.7087 32.414 16.8976 32.4314 19.2948 32.4314C22.1156 32.4314 22.4318 32.3675 23.003 31.6828C23.5519 31.0249 23.6209 30.5578 23.5759 27.8074C23.5286 24.9296 23.4434 24.6391 22.4872 24.097C22.0186 23.8313 21.8539 23.8171 19.3099 23.8247C17.8341 23.8292 16.4854 23.8896 16.3128 23.959ZM27.1137 23.9048C26.6651 24.0828 26.211 24.5066 25.9805 24.9625C25.7563 25.406 25.7322 25.7139 25.7322 28.1395C25.7322 30.7719 25.7384 30.8363 26.0444 31.3629C26.2525 31.7212 26.5378 31.9887 26.9004 32.1658C27.3983 32.409 27.6615 32.4314 30.0222 32.4314C32.4712 32.4314 32.6276 32.4168 33.1472 32.1396C33.5209 31.9402 33.7855 31.6733 33.9832 31.2963C34.2584 30.7714 34.2725 30.6164 34.2725 28.0991C34.2725 25.1359 34.1872 24.7675 33.3648 24.1758C32.9663 23.8891 32.8677 23.8793 30.1279 23.855C28.5737 23.8413 27.2173 23.8636 27.1137 23.9048ZM48.4646 23.959C48.2919 24.0286 48.0181 24.2102 47.8559 24.3628C47.2423 24.9407 47.2085 25.1391 47.2085 28.1623C47.2085 30.897 47.2188 31.016 47.4921 31.4308C47.6481 31.6676 48.0274 31.9895 48.3351 32.1463C48.8604 32.414 49.0493 32.4314 51.4465 32.4314C54.2673 32.4314 54.5836 32.3675 55.1548 31.6828C55.7036 31.0249 55.7727 30.5578 55.7276 27.8074C55.6804 24.9296 55.5951 24.6391 54.639 24.097C54.1704 23.8313 54.0056 23.8171 51.4616 23.8247C49.9859 23.8292 48.6371 23.8896 48.4646 23.959ZM10.661 28.1241V30.2777H8.52596H6.39089V28.1241V25.9704H8.52596H10.661V28.1241ZM21.462 28.1241V30.2777H19.3269H17.1919V28.1241V25.9704H19.3269H21.462V28.1241ZM32.1374 28.1241V30.2777H30.0023H27.8672V28.1241V25.9704H30.0023H32.1374V28.1241ZM53.6137 28.1241V30.2777H51.4787H49.3436V28.1241V25.9704H51.4787H53.6137V28.1241ZM5.56825 34.7633C5.07292 34.9809 4.55058 35.6123 4.37462 36.206C4.28633 36.5041 4.25066 37.6003 4.27703 39.209C4.32426 42.0868 4.40954 42.3773 5.36567 42.9194C5.83401 43.1849 6.00456 43.1996 8.61865 43.1996C11.2802 43.1996 11.3924 43.1895 11.8012 42.9116C12.0343 42.7532 12.3563 42.427 12.5168 42.1867C12.8043 41.7564 12.808 41.7062 12.771 38.8325C12.7342 35.9853 12.726 35.905 12.4318 35.4887C11.8676 34.6908 11.4295 34.5903 8.52596 34.5928C6.66531 34.5944 5.84506 34.6417 5.56825 34.7633ZM10.661 38.8923V41.046H8.52596H6.39089V38.8923V36.7387H8.52596H10.661V38.8923ZM32.1374 37.3088V37.8788L31.6036 37.8796C30.0267 37.8816 28.4721 39.0421 28.0836 40.5071L27.9407 41.046H22.5663H17.1919V38.8923V36.7387H24.6646H32.1374V37.3088Z" fill="white"/>
</svg>
