<svg width="54" height="71" viewBox="0 0 54 71" fill="none" xmlns="http://www.w3.org/2000/svg">
<path fill-rule="evenodd" clip-rule="evenodd" d="M18.9562 0.131061C16.5708 0.439736 13.4375 1.71762 11.5402 3.15533C8.14181 5.73081 5.26438 10.273 4.22613 14.701L3.98201 15.7424L2.40436 17.3449C0.177525 19.6072 -0.322019 20.8224 0.176968 22.7638C0.478924 23.9379 0.968436 24.6589 2.47891 26.1536L3.73885 27.4004L3.73607 29.2779C3.73314 31.3253 3.57624 32.733 3.23638 33.7622C2.95783 34.6059 2.95993 36.1166 3.24084 36.898C3.55659 37.7762 4.34249 38.7735 5.09968 39.2566C6.27629 40.0072 9.5769 41.3148 12.5175 42.1951C13.3222 42.4361 14.3881 42.8419 14.8863 43.0969C15.3844 43.3519 16.0182 43.6022 16.2948 43.653L16.7974 43.7452L16.8796 46.4759C16.9663 49.3526 17.1151 50.2685 17.7548 51.862C18.105 52.7341 18.1085 52.7777 17.9708 54.6359C17.8181 56.6968 17.883 57.0515 18.4614 57.3142C18.9499 57.536 19.1446 57.5078 19.5534 57.156C19.9028 56.8555 19.9224 56.7574 20.0694 54.5948C20.2195 52.3863 20.2166 52.3328 19.9015 51.6094C19.7251 51.2042 19.4994 50.6071 19.4 50.2826L19.2193 49.6925H28.4882H37.7573L37.6631 50.0049C37.6113 50.1768 37.4139 50.71 37.2242 51.19L36.8795 52.0626L37.3064 53.8283C38.083 57.0389 38.9916 61.9013 38.9923 62.849L38.9926 63.3003L37.4947 63.3052C36.6707 63.3078 35.4951 63.4003 34.882 63.5107C33.2121 63.8114 33.3347 63.8778 33.1469 62.5713C33.0563 61.9412 32.7998 60.4885 32.5768 59.3429C32.2221 57.5199 32.125 57.2197 31.7986 56.9361C31.494 56.6716 31.3339 56.6297 30.9244 56.7073C29.5204 56.9735 28.6359 57.0388 27.4869 56.961C26.2471 56.8771 26.2175 56.8823 25.9391 57.235C25.7263 57.5045 25.6144 57.9698 25.4921 59.0935C25.3254 60.623 24.9042 63.7606 24.8577 63.8181C24.8436 63.8356 24.1051 63.6669 23.2165 63.4432C22.3279 63.2196 21.0613 62.9615 20.4018 62.8694L19.2026 62.7024L19.2895 61.8556C19.3631 61.1404 19.3344 60.9571 19.1039 60.6736C18.7561 60.2455 18.0527 60.222 17.6483 60.625C17.2685 61.0036 16.646 64.3971 16.6357 66.1468C16.6293 67.2203 16.6807 67.5082 17.0003 68.1874C17.4753 69.1978 18.3726 70.0902 19.4236 70.5978C20.1455 70.9465 20.411 70.9977 21.5051 70.9999C22.5713 71.002 22.874 70.9482 23.5255 70.64C25.3873 69.7597 26.1274 68.6082 26.6421 65.7907C26.8295 64.7647 27.0894 63.1128 27.2195 62.12C27.3495 61.1272 27.4965 60.0455 27.5462 59.7164L27.6362 59.1178L29.0261 59.0916L30.4161 59.0652L30.5034 59.5512C30.9993 62.3085 31.2222 63.8199 31.3878 65.5495C31.5641 67.3904 31.6279 67.6735 32.0384 68.4413C32.5681 69.4313 33.3177 70.131 34.3943 70.64C35.0459 70.9482 35.3485 71.002 36.4148 70.9999C37.4991 70.9977 37.7771 70.9451 38.4684 70.611C39.4842 70.1199 40.3972 69.2119 40.8991 68.1934C41.2752 67.4301 41.2914 67.3146 41.2806 65.4525C41.2663 62.9236 40.7761 59.7152 39.6063 54.4937L39.1109 52.2827L39.4557 51.2306C39.6452 50.652 39.8437 49.9119 39.8968 49.586L39.9932 48.9936L40.5209 49.6554C40.811 50.0195 41.341 50.7981 41.6984 51.3857C42.9814 53.495 44.394 54.3352 46.5171 54.2518C47.4936 54.2135 47.8433 54.1338 48.5089 53.7976C49.4922 53.3011 50.3198 52.4345 50.8145 51.383C51.1298 50.7128 51.1851 50.4084 51.1851 49.3454C51.1851 48.2669 51.1316 47.9818 50.795 47.2653C50.2446 46.0938 48.8113 43.9903 47.655 42.657L46.6717 41.5228L48.0226 41.0046C50.1714 40.1805 51.6684 39.4543 52.3263 38.9171C53.1237 38.266 53.7075 37.2251 53.9103 36.0933C54.0587 35.2647 54.0412 35.0498 53.7192 33.7241C53.1999 31.5866 53.1606 30.6854 53.3434 25.106C53.467 21.3367 53.4695 19.6258 53.3536 18.3954C52.9771 14.4002 51.7849 10.8941 49.7603 7.82766C48.266 5.5646 47.5494 5.08444 46.8201 5.85786C46.3839 6.32067 46.443 6.80708 47.0284 7.5712C49.4757 10.7661 50.8501 14.2971 51.2623 18.4481C51.382 19.6528 51.3792 21.3002 51.2513 25.1826C51.0678 30.7513 51.143 32.3249 51.6851 34.2524C52.0052 35.3905 51.9631 35.845 51.4563 36.7238C51.2073 37.1555 50.8984 37.4134 50.181 37.7882C49.2123 38.2944 47.0196 39.1931 45.7209 39.616L44.9945 39.8528L43.7701 38.7831C43.0968 38.1949 41.7393 37.114 40.7538 36.3814C39.4873 35.44 39.0173 35.0169 39.1513 34.9389C41.6396 33.4902 42.5454 32.8302 43.845 31.5191C46.0672 29.277 47.6241 26.1992 48.0584 23.1893C48.2871 21.6054 48.1612 19.0991 47.7789 17.6169C47.4661 16.4047 46.3021 13.7855 45.9489 13.4989C45.8399 13.4105 45.1332 13.265 44.3785 13.1755C40.8333 12.7554 35.8351 11.1091 31.2159 8.84033C29.182 7.84141 28.8795 7.73116 28.3382 7.79198C27.9681 7.83349 26.849 8.29477 25.4553 8.98016C21.7481 10.8031 17.6185 12.2448 14.1447 12.9289C12.7024 13.2129 12.6206 13.2152 12.2636 12.9838C11.454 12.4589 10.8791 12.2841 9.78508 12.2303C8.82696 12.1831 8.52681 12.2265 7.81087 12.5146L6.96645 12.8545L7.08462 12.5446C7.8184 10.6216 9.41666 8.09579 10.8537 6.58824C14.9534 2.28734 20.4353 1.0382 26.6394 2.9912C28.0482 3.4347 28.8954 3.43609 30.2877 2.99717C34.7553 1.5889 38.7804 1.81537 42.3178 3.67451C43.6787 4.38975 44.1457 4.44112 44.5562 3.92097C45.2144 3.08729 44.7937 2.51784 42.8245 1.57696C38.9827 -0.258845 34.9637 -0.483512 30.1275 0.867271C28.5702 1.3023 28.4352 1.31841 27.8452 1.14054C24.4346 0.112037 21.5948 -0.210523 18.9562 0.131061ZM30.8038 10.94C32.0505 11.5444 33.6662 12.2707 34.3943 12.5543C37.6569 13.8244 41.6743 14.9587 43.7753 15.2028C44.7269 15.3133 44.8011 15.3964 45.3892 17.0052C46.4236 19.8356 46.3234 23.1139 45.1156 25.9483C43.5426 29.6399 40.0879 32.6175 35.7101 34.0548C32.1684 35.2175 27.1189 35.4425 23.3514 34.6052C22.5446 34.4259 22.4105 34.3533 22.4093 34.0949C22.4084 33.9291 22.2593 33.1389 22.0779 32.3387L21.7481 30.8839L22.4955 30.0609C23.384 29.0825 23.768 28.3428 23.9427 27.2728C24.198 25.7096 23.6942 24.3056 22.3934 22.9557C21.8155 22.3559 21.609 22.0603 21.768 22.0603C21.8986 22.0603 22.1593 21.9069 22.3474 21.7194C22.6576 21.4105 22.6895 21.2672 22.6895 20.1858C22.6895 19.1044 22.6576 18.9611 22.3474 18.6521C21.9373 18.2433 21.4454 18.2157 20.998 18.5763C20.7146 18.8046 20.6594 18.9974 20.5993 19.9672L20.5297 21.0932L17.4856 18.0561L14.4415 15.0191L15.8135 14.709C18.841 14.0246 23.8143 12.1801 26.8698 10.6081C27.6745 10.194 28.3789 9.85203 28.435 9.84814C28.4912 9.84426 29.5571 10.3355 30.8038 10.94ZM10.7478 14.5076C11.3937 14.8308 21.2569 24.6539 21.603 25.3184C22.0896 26.253 21.9152 27.7392 21.2547 28.2853C21.0893 28.4221 21.002 28.3037 20.7397 27.5865C20.3618 26.5537 19.2413 25.3581 18.1608 24.8348C17.5749 24.551 17.2537 24.4968 16.1404 24.4937C14.9968 24.4907 14.71 24.5401 14.0335 24.8562C11.6096 25.9888 10.6209 28.4157 11.4458 31.2085L11.7897 32.3725L7.19776 27.8066C4.67217 25.2952 2.52336 23.0844 2.42276 22.8934C2.0999 22.2814 2.03093 21.6429 2.215 20.9702C2.36939 20.4054 2.73335 19.9797 5.12058 17.5704C6.62144 16.0555 8.06893 14.6993 8.33717 14.5564C8.94972 14.2301 10.145 14.206 10.7478 14.5076ZM9.31257 17.0225C8.71562 17.2373 8.39834 18.0496 8.72245 18.5334C8.86221 18.742 9.38447 19.0055 9.65814 19.0055C9.99841 19.0055 10.5667 18.3677 10.5667 17.9857C10.5667 17.377 9.85238 16.8284 9.31257 17.0225ZM38.3844 18.5991C38.0345 18.8733 38.0172 18.9479 38.0172 20.1858C38.0172 21.4237 38.0345 21.4982 38.3844 21.7725C38.8758 22.1578 39.3481 22.1353 39.7789 21.706C40.1166 21.3695 40.1322 21.288 40.0862 20.0968C40.0428 18.9763 40.0024 18.8135 39.7087 18.5766C39.2826 18.2328 38.8421 18.2403 38.3844 18.5991ZM12.1416 20.1406C11.4566 20.4772 11.5072 21.6194 12.2201 21.9137C13.1894 22.3139 14.0562 21.2019 13.3884 20.4153C13.0868 20.0602 12.5471 19.9414 12.1416 20.1406ZM27.3121 20.2988C26.6393 21.0125 27.1388 21.9037 28.6187 22.6296C29.4372 23.0311 29.6017 23.0633 30.5261 23.0031C32.5884 22.869 34.2161 21.4331 33.4581 20.4167C33.037 19.852 32.4062 19.8493 31.7069 20.4092C31.2783 20.7526 30.9716 20.8752 30.4297 20.92C29.7816 20.9735 29.6568 20.9334 29.0584 20.4782C28.2841 19.8893 27.75 19.8345 27.3121 20.2988ZM17.2228 26.7186C18.3 27.1671 18.6138 27.6546 19.2827 29.9199C20.3032 33.376 20.676 36.0165 20.4502 38.1907C20.2587 40.0358 19.8434 40.8263 18.7879 41.3547C17.2901 42.1045 15.6298 41.5638 14.8693 40.0784C14.607 39.5662 14.5902 39.3689 14.677 37.8354C14.7901 35.8356 14.5873 34.4559 13.8012 31.8793C13.119 29.6429 13.0939 28.6005 13.7019 27.741C14.4855 26.633 15.9769 26.1999 17.2228 26.7186ZM12.0785 35.4533L12.6847 35.8281L12.5848 37.8656C12.5299 38.9863 12.4623 39.9278 12.4347 39.9579C12.3543 40.0455 9.51476 39.0202 7.92973 38.3314C5.29698 37.1871 4.70798 36.2409 5.31482 34.131C5.59462 33.158 5.829 31.4353 5.829 30.3514V29.498L8.65069 32.2882C10.2026 33.8229 11.7452 35.2472 12.0785 35.4533ZM37.5698 37.0701L37.9453 38.0981L37.991 42.8548L38.0367 47.6116L28.5168 47.5759L18.9969 47.5402L18.9583 45.5697L18.9197 43.5992L19.5459 43.3232C20.4156 42.9398 21.5056 41.8808 21.9122 41.024C22.2585 40.2948 22.4665 39.2868 22.6265 37.5625L22.7149 36.6104L23.155 36.7022C25.4116 37.1726 29.3152 37.3331 31.6111 37.0499C33.0728 36.8695 35.0303 36.4649 36.1361 36.1144C36.5959 35.9686 37.0222 35.8928 37.0832 35.9458C37.1442 35.9989 37.3633 36.5047 37.5698 37.0701ZM42.287 40.2755C44.9817 42.5682 47.5382 45.5625 48.6258 47.6996C49.1463 48.7226 49.1953 48.9062 49.1364 49.6138C49.0576 50.5602 48.5202 51.4069 47.6957 51.8836C47.2349 52.1501 46.9817 52.1956 46.1558 52.1609C45.3232 52.1258 45.0864 52.0576 44.6524 51.7278C44.3692 51.5125 43.9737 51.0758 43.7739 50.7574C42.6996 49.0463 42.048 48.1687 41.1315 47.1978L40.1161 46.1222L40.0768 42.2936L40.0377 38.4649L40.5254 38.8283C40.7936 39.0281 41.5863 39.6794 42.287 40.2755ZM21.6444 65.193C22.1809 65.3099 23.0452 65.5386 23.5651 65.701C24.4993 65.9927 24.5094 66.0012 24.4261 66.4187C24.2525 67.29 23.7365 68.0777 23.0709 68.4878C20.7705 69.9051 18.1912 67.974 18.7391 65.2445L18.8296 64.7935L19.7494 64.8869C20.2552 64.9382 21.1079 65.076 21.6444 65.193ZM39.2713 66.0124C39.2713 67.6145 37.9562 68.982 36.4072 68.9903C35.6028 68.9946 34.4588 68.3903 34.0197 67.7291C33.5786 67.0648 33.4179 65.9835 33.7419 65.8597C34.3588 65.6236 36.1783 65.4067 37.634 65.3956L39.2713 65.3831V66.0124Z" fill="white"/>
</svg>
