<svg width="58" height="75" viewBox="0 0 58 75" fill="none" xmlns="http://www.w3.org/2000/svg">
<path fill-rule="evenodd" clip-rule="evenodd" d="M26.8757 2.71444L24.8364 5.42888H21.7753C20.0916 5.42888 18.7141 5.46248 18.7141 5.50371C18.7141 5.54479 19.3777 6.89849 20.1887 8.51189L21.6634 11.4454L20.6881 13.3891C19.7168 15.325 19.7051 15.3402 17.8144 17.142C15.701 19.1559 14.4751 20.6014 12.94 22.8893C11.8236 24.5531 10.2832 27.5772 9.65158 29.3453C9.26206 30.4356 8.25032 33.8476 8.25032 34.071C8.25032 34.135 8.95478 34.1873 9.81591 34.1873H11.3813L10.4343 35.251C6.63182 39.5215 4.45772 44.2691 3.71464 49.9243C3.64302 50.4692 3.61737 50.948 3.65761 50.988C3.69784 51.0281 4.55631 51.0608 5.5654 51.0608H7.39995L7.1304 51.4643C4.3603 55.6117 2.07625 61.0721 0.947195 66.247C0.630334 67.6996 0.0103189 71.7564 2.55098e-06 72.4462C-0.00220811 72.5903 1.43177 72.6296 6.6865 72.6296H13.3757L13.4716 73.1389C13.5921 73.7779 14.2055 74.5157 14.8338 74.7771C15.5514 75.0755 44.8774 75.0737 45.5783 74.7752C46.2198 74.502 46.812 73.8393 46.9713 73.2165L47.1026 72.7029L52.4973 72.6296C55.4645 72.5892 57.9304 72.5181 57.9771 72.4716C58.1065 72.3424 57.6637 68.9761 57.2376 66.8499C56.2578 61.9613 54.2345 56.7987 51.6816 52.6748L50.7279 51.1342L52.5905 51.0608L54.453 50.9874L54.409 50.4739C54.3132 49.3595 53.8867 47.1095 53.5468 45.9254C52.3675 41.817 50.5418 38.5249 47.6267 35.251L46.6796 34.1873H48.2569H49.8341L49.7318 33.7104C49.6757 33.4482 49.4008 32.4742 49.1211 31.5462C47.3723 25.7436 44.6803 21.3742 40.2453 17.1394C38.3654 15.3444 38.3471 15.3206 37.3754 13.3891L36.3976 11.4454L37.8722 8.51189C38.6832 6.89849 39.3469 5.54479 39.3469 5.50371C39.3469 5.46248 37.9694 5.42888 36.2857 5.42888H33.2246L31.1853 2.71444C30.0636 1.2215 29.094 0 29.0305 0C28.967 0 27.9974 1.2215 26.8757 2.71444ZM30.5718 5.90574L31.9835 7.7765H33.6757C34.6929 7.7765 35.3677 7.83431 35.3677 7.92161C35.3677 8.00143 34.9878 8.82677 34.5232 9.75569L33.6788 11.4447L34.5232 13.1336C34.9878 14.0626 35.3677 14.8527 35.3677 14.8895C35.3677 14.9263 34.6217 14.9752 33.7097 14.9979L32.0517 15.0395L30.6014 16.9469C29.8038 17.996 29.0968 18.8543 29.0305 18.8543C28.9642 18.8543 28.2572 17.996 27.4596 16.9469L26.0093 15.0395L24.3513 14.9979C23.4394 14.9752 22.6933 14.9263 22.6933 14.8895C22.6933 14.8527 23.0732 14.0626 23.5377 13.1336L24.3822 11.4447L23.5377 9.75569C23.0732 8.82677 22.6933 8.00143 22.6933 7.92161C22.6933 7.83431 23.3687 7.7765 24.3869 7.7765H26.0806L27.5171 5.86847C28.3072 4.81908 29 3.97731 29.0567 3.99771C29.1135 4.01825 29.7952 4.87675 30.5718 5.90574ZM26.8757 20.1749C27.9974 21.6678 28.967 22.8893 29.0305 22.8893C29.094 22.8893 30.0636 21.6678 31.1853 20.1749L33.2246 17.4604H35.1637H37.1029L38.5455 18.8177C41.1863 21.3025 43.1945 23.9683 44.7623 27.071C45.4255 28.3835 46.7157 31.4841 46.7157 31.7654C46.7157 31.8031 45.2818 31.8517 43.5292 31.8734L40.3426 31.913L42.6817 33.917C45.7603 36.5544 47.3094 38.3158 48.8477 40.928C50.0092 42.9006 51.2426 46.0777 51.6278 48.0896L51.7192 48.5664H48.849C47.2705 48.5664 45.9789 48.6034 45.9789 48.6485C45.9789 48.6937 46.3753 49.249 46.86 49.8829C49.4178 53.2279 51.9151 57.7592 53.2509 61.4784C53.9835 63.5179 54.8602 66.8892 55.1686 68.8514L55.3702 70.1352H51.2695H47.1689L47.1265 61.4417C47.0792 51.7181 47.1311 52.1856 46.0167 51.4319L45.4683 51.0608H40.1864H34.9044L35.0021 50.2824C35.1962 48.7352 34.4403 47.3398 33.0191 46.6223C31.5685 45.8899 30.1405 46.1327 28.9487 47.3143C28.0661 48.1892 27.7666 49.0254 27.8944 50.2576C27.9754 51.0407 27.9682 51.0608 27.6052 51.0608C26.9912 51.0608 26.2274 51.5115 25.8312 52.1078C25.5054 52.5979 25.4485 52.8746 25.3807 54.2986C25.3179 55.6181 25.2581 55.9434 25.0666 56.0071C24.1339 56.318 23.1837 56.8637 22.5536 57.4504L21.8148 58.1384L20.9645 57.3611C20.4968 56.9337 20.1264 56.5132 20.1414 56.4267C20.1565 56.3403 20.2789 55.9725 20.4135 55.6093C20.8732 54.3698 20.448 52.9145 19.3335 51.9121C18.584 51.238 17.8768 51.0143 16.7255 51.0872C13.7254 51.2775 12.3596 54.6883 14.3466 57.0285C14.9006 57.6809 15.7969 58.0667 17.1397 58.2306C17.9672 58.3315 18.4553 58.479 18.8725 58.7538C19.4149 59.1111 20.3352 60.1931 20.3352 60.4733C20.3352 60.542 18.6752 60.598 16.6461 60.598C12.6315 60.598 12.3392 60.646 11.6169 61.4236C11.1162 61.9627 10.905 62.7484 10.904 64.0756C10.9027 65.7522 11.1246 66.5139 11.7891 67.1115C12.1028 67.3935 12.5954 67.6683 12.8839 67.7223L13.4085 67.8203V68.9777V70.1352H8.04959H2.69081L2.89242 68.8514C3.90682 62.3942 6.74162 55.88 11.0583 50.0865C11.6214 49.3307 12.0821 48.6796 12.0821 48.6394C12.0821 48.5993 10.7889 48.5664 9.20827 48.5664C7.62765 48.5664 6.33486 48.5499 6.3353 48.5298C6.3468 48.0809 7.38699 44.7612 7.87952 43.6015C9.4793 39.8343 11.3871 37.3692 15.3145 33.9942L17.7364 31.913L14.5408 31.8734C12.7832 31.8517 11.3452 31.8031 11.3452 31.7654C11.3452 31.4841 12.6355 28.3835 13.2987 27.071C14.8745 23.9528 16.8975 21.2709 19.5247 18.8177L20.978 17.4604H22.9071H24.8364L26.8757 20.1749ZM32.3096 49.0234C32.5936 49.3639 32.6477 50.0507 32.4233 50.4682C32.2246 50.8376 31.4652 51.0825 31.0294 50.9176C30.5899 50.7512 30.2095 50.2186 30.2095 49.7697C30.2095 49.5797 30.4111 49.2235 30.6575 48.9782C31.0325 48.6049 31.1828 48.5469 31.5786 48.6231C31.8389 48.6731 32.1679 48.8533 32.3096 49.0234ZM17.7362 53.7126C18.5396 54.3416 18.0482 55.756 17.0263 55.756C15.8165 55.756 15.3691 54.3412 16.3432 53.5965C16.6997 53.3241 17.3044 53.3744 17.7362 53.7126ZM35.073 56.4935V59.5786L33.7564 58.6972L32.4398 57.8158L31.6202 58.7176C31.1694 59.2135 30.7206 59.8394 30.6228 60.1087L30.445 60.598H29.1482H27.8515V59.4242V58.2504H29.0305H30.2095V57.0032V55.756H29.0305H27.8515V54.5822V53.4084H31.4622H35.073V56.4935ZM44.6525 57.0032V60.598H43.3557H42.0589L41.8712 60.0814C41.768 59.7972 41.3181 59.1717 40.8714 58.6913L40.0592 57.8178L38.9656 58.5525C37.2785 59.686 37.431 59.8967 37.431 56.432V53.4084H41.0417H44.6525V57.0032ZM25.3461 59.5709V60.598H24.3144C23.747 60.598 23.2828 60.5618 23.2828 60.5173C23.2828 60.0516 24.7106 58.5438 25.1515 58.5438C25.2942 58.5438 25.3461 58.8181 25.3461 59.5709ZM33.6455 61.5192L34.0603 61.8053L33.5427 62.1554C32.8275 62.6393 32.7149 62.6004 32.7149 61.8697C32.7149 60.9374 32.7714 60.9161 33.6455 61.5192ZM39.8251 61.405C39.9152 61.8742 39.7957 62.5055 39.6166 62.5055C39.5407 62.5055 39.244 62.3468 38.9574 62.1529L38.4362 61.8003L38.9995 61.4192C39.6935 60.9496 39.7374 60.9488 39.8251 61.405ZM18.1246 64.1928V65.44H15.7666H13.4085V64.1928V62.9456H15.7666H18.1246V64.1928ZM22.988 64.1928V65.44H21.809H20.63V64.1928V62.9456H21.809H22.988V64.1928ZM30.2095 64.1928V65.44H27.8515H25.4934V64.1928V62.9456H27.8515H30.2095V64.1928ZM44.6525 67.7876V72.6296H41.0417H37.431V68.3745C37.431 66.0342 37.4659 64.1195 37.5085 64.1195C37.5511 64.1195 38.1297 64.4819 38.7942 64.9247L40.0024 65.7301L40.6469 65.1081C41.0013 64.7661 41.4903 64.1395 41.7334 63.716L42.1752 62.9456H43.4138H44.6525V67.7876ZM35.073 68.3745V72.6296H32.6412H30.2095V70.239V67.8485L30.8521 67.6774C31.5727 67.4855 32.3817 66.693 32.5118 66.0515C32.5696 65.7667 32.8994 65.4526 33.7215 64.8993C34.3433 64.481 34.9016 64.1343 34.9624 64.129C35.0233 64.1237 35.073 66.0342 35.073 68.3745ZM18.1246 70.2086V72.6296H16.9456H15.7666V70.2086V67.7876H16.9456H18.1246V70.2086ZM22.988 70.2086V72.6296H21.809H20.63V70.2086V67.7876H21.809H22.988V70.2086ZM27.8515 70.2086V72.6296H26.6725H25.4934V70.2086V67.7876H26.6725H27.8515V70.2086Z" fill="white"/>
</svg>
