<svg width="60" height="72" viewBox="0 0 60 72" fill="none" xmlns="http://www.w3.org/2000/svg">
<path fill-rule="evenodd" clip-rule="evenodd" d="M31.2569 0.19391C33.4297 0.817963 36.0799 2.3622 39.078 4.75093C40.7895 6.11468 44.5869 9.94101 45.9701 11.6957C46.8579 12.8218 47.1421 13.0886 47.5805 13.2076C48.5207 13.4625 49.1757 14.0784 50.0753 15.5534C51.1592 17.3303 52.5683 20.176 52.7762 21.0071C52.9235 21.5966 52.9063 21.7164 52.5769 22.3948C52.22 23.1294 52.2185 23.1459 52.4369 23.9776C52.5583 24.4398 52.7679 25.3562 52.9028 26.0139C53.1823 27.3759 53.0598 27.314 54.72 26.9317C55.2961 26.799 56.2735 26.6838 56.8922 26.6756C57.8241 26.6634 58.1356 26.7201 58.7077 27.0057C59.6686 27.4853 60.0706 28.1228 59.9899 29.0385C59.9035 30.0187 56.1236 39.1536 55.4067 40.1146C54.3553 41.5241 52.7781 42.3916 50.9574 42.5621L49.995 42.6523L49.7531 43.3014C49.0866 45.0903 47.1495 48.3336 46.3868 48.938C46.1868 49.0964 45.8719 49.226 45.6867 49.226C45.2593 49.226 44.664 48.635 44.6656 48.2124C44.6663 48.0348 45.0707 47.3212 45.5641 46.6266C47.2069 44.3141 48.4306 41.3815 48.9138 38.5983C49.137 37.3137 49.2069 34.1758 49.043 32.8017L48.9549 32.0631H30H11.0451L10.957 32.8017C10.7989 34.1278 10.863 37.1693 11.0772 38.4995C11.9812 44.1149 15.6806 49.4156 20.6427 52.2058C27.1005 55.837 35.2088 55.3516 41.2427 50.9724C42.6119 49.9786 43.0706 49.8876 43.582 50.5081C44.209 51.2688 43.6081 52.0467 41.2745 53.496L39.9487 54.3194L39.8735 55.0435C39.8077 55.6747 39.8369 55.7946 40.1003 55.9786C42.016 57.3161 43.934 59.348 45.2022 61.3833C46.5801 63.5945 47.6531 66.5962 47.6456 68.2177C47.639 69.6178 46.815 70.9468 45.5503 71.5976L44.8739 71.9457L30.2888 71.9834C14.1105 72.0253 14.812 72.0624 13.6994 71.1031C12.9002 70.4141 12.359 69.2623 12.3544 68.2406C12.3499 67.2707 12.7863 65.5635 13.4332 64.0182C14.707 60.9759 16.7382 58.3572 19.316 56.4341C19.7768 56.0903 20.1488 55.7204 20.1423 55.6124C20.1359 55.5043 20.1201 55.1725 20.1074 54.8749C20.0851 54.3554 20.038 54.3056 18.9263 53.6212C15.2042 51.3301 11.848 47.3987 10.3659 43.5936L9.99904 42.6517L9.03971 42.5618C7.22203 42.3918 5.64414 41.5232 4.59333 40.1146C3.87645 39.1536 0.0965309 30.0187 0.0100822 29.0385C-0.0706406 28.1228 0.33144 27.4853 1.29231 27.0057C1.86436 26.7201 2.17595 26.6634 3.10776 26.6756C3.72646 26.6838 4.70394 26.799 5.28004 26.9317C6.94019 27.314 6.81771 27.3759 7.09717 26.0139C7.23208 25.3562 7.44171 24.4398 7.56308 23.9776C7.78151 23.1459 7.77997 23.1294 7.42314 22.3948C7.09382 21.7167 7.0765 21.5964 7.2237 21.0078C7.44171 20.1356 8.55858 17.8504 9.7274 15.885C10.7616 14.1459 11.4334 13.475 12.4039 13.2118C12.861 13.0879 13.1314 12.8362 14.0331 11.6957C15.4331 9.92483 19.226 6.09287 20.9221 4.73574C24.53 1.84872 28.1938 -0.0434161 30.0899 0.000757201C30.3862 0.00779116 30.9113 0.0945902 31.2569 0.19391ZM27.6902 2.85683C24.2418 4.50235 19.8233 8.09136 16.6613 11.8156L15.595 13.0714H18.8718H22.1487L22.2301 12.7446C22.3798 12.1436 23.2481 11.1731 24.0115 10.7534C24.6997 10.375 24.9034 10.3356 26.4387 10.2844C27.9946 10.2325 28.1421 10.2505 28.4986 10.5348C28.9341 10.8819 29.0193 11.5632 28.6848 12.0246C28.5133 12.2614 28.2609 12.3071 26.7886 12.368L25.0902 12.4383L24.6123 12.9638L24.1343 13.4894V18.2815C24.1343 23.5417 24.1553 23.6892 24.9676 24.1123C25.576 24.4293 34.424 24.4293 35.0324 24.1123C35.8815 23.67 35.9308 23.4034 35.9814 18.9799C36.0375 14.0525 35.9954 13.6317 35.3758 12.9507L34.9098 12.4383L33.2114 12.368C31.7391 12.3071 31.4867 12.2614 31.3152 12.0246C30.9807 11.5632 31.0659 10.8819 31.5014 10.5348C31.8579 10.2505 32.0054 10.2325 33.5614 10.2844C35.0966 10.3356 35.3003 10.375 35.9885 10.7534C36.7519 11.1731 37.6202 12.1436 37.7699 12.7446L37.8513 13.0714H41.1282H44.405L43.3387 11.8156C39.7941 7.6409 34.7137 3.68557 31.1871 2.35516C30.1552 1.96591 29.3006 2.08844 27.6902 2.85683ZM33.4488 14.8175L33.8407 15.1567L33.887 17.801C33.9397 20.7978 33.8653 21.5577 33.4815 21.9443C33.2312 22.1964 32.9859 22.2156 30 22.2156C26.974 22.2156 26.7716 22.1992 26.5085 21.9342C26.2451 21.6689 26.2292 21.4653 26.2292 18.3571V15.0613L26.5972 14.7698C26.9439 14.4951 27.141 14.4782 30.011 14.4782C33.0288 14.4782 33.0605 14.4813 33.4488 14.8175ZM38.1003 18.3469V21.5122H44.4514H50.8025L50.3099 20.4219C49.2898 18.1637 47.7315 15.5761 47.2481 15.3382C47.0854 15.258 45.118 15.1966 42.5346 15.1912L38.1003 15.1816V18.3469ZM12.7934 15.3292C12.2882 15.5616 10.7377 18.1065 9.69067 20.4219L9.19753 21.5122H15.6184H22.0393V18.4407C22.0393 16.7513 21.9974 15.3269 21.9462 15.2754C21.7874 15.1155 13.1477 15.1663 12.7934 15.3292ZM28.3241 18.3469V20.1054H30.0698H31.8156V18.4407C31.8156 17.525 31.7737 16.7337 31.7224 16.6822C31.6713 16.6306 30.8857 16.5884 29.9767 16.5884H28.3241V18.3469ZM37.6915 24.1395C37.4213 24.8923 36.3388 25.921 35.5218 26.2014C34.5017 26.5514 25.4983 26.5514 24.4782 26.2014C23.6612 25.921 22.5787 24.8923 22.3085 24.1395L22.1229 23.6223H16.0024H9.88187L9.73564 24.0092C9.45227 24.7582 9.04697 26.6581 8.9615 27.6386C8.8939 28.4125 8.92547 28.7284 9.10493 29.0782C9.58564 30.0144 8.11655 29.9529 30 29.9529C51.8835 29.9529 50.4144 30.0144 50.8951 29.0782C51.0745 28.7284 51.1061 28.4125 51.0385 27.6386C50.953 26.6581 50.5477 24.7582 50.2644 24.0092L50.1181 23.6223H43.9976H37.8771L37.6915 24.1395ZM54.8596 29.0606C53.3742 29.4441 52.9968 29.6528 52.5966 30.3122C52.3887 30.6545 51.9438 31.1297 51.6076 31.3683L50.9965 31.8023L51.1041 32.4602C51.3868 34.1876 51.1863 38.3633 50.736 40.1267C50.635 40.5217 50.6367 40.5228 51.1759 40.4241C51.4737 40.3695 52.0096 40.1773 52.3668 39.997C53.5886 39.3804 53.8874 38.8659 55.9927 33.7569C57.0594 31.168 57.9322 29.004 57.9322 28.9483C57.9322 28.6518 56.1974 28.7152 54.8596 29.0606ZM2.09605 28.8929C2.061 28.9282 2.90441 31.0858 3.97044 33.6877C5.50084 37.4233 6.02234 38.5502 6.44998 39.0457C7.04326 39.7332 7.98779 40.2767 8.81346 40.4057C9.2682 40.4766 9.3337 40.4543 9.27141 40.2499C8.84111 38.8399 8.61808 34.1609 8.89907 32.4387C9.00982 31.7602 9.00927 31.7588 8.47101 31.4165C8.00343 31.1191 7.20024 30.1956 7.06938 29.8046C7.00625 29.6161 5.50727 29.106 4.37225 28.8868C3.49867 28.7182 2.2663 28.7214 2.09605 28.8929ZM39.4334 36.6288C39.7443 36.9418 39.7763 37.087 39.7763 38.1826C39.7763 39.2783 39.7443 39.4234 39.4334 39.7364C38.9965 40.1766 38.4611 40.1766 38.0242 39.7364C37.7133 39.4234 37.6813 39.2783 37.6813 38.1826C37.6813 37.087 37.7133 36.9418 38.0242 36.6288C38.2128 36.4389 38.5298 36.2835 38.7288 36.2835C38.9278 36.2835 39.2448 36.4389 39.4334 36.6288ZM21.9758 36.6288C22.2867 36.9418 22.3187 37.087 22.3187 38.1826C22.3187 39.2783 22.2867 39.4234 21.9758 39.7364C21.5389 40.1766 21.0035 40.1766 20.5666 39.7364C20.2557 39.4234 20.2237 39.2783 20.2237 38.1826C20.2237 37.087 20.2557 36.9418 20.5666 36.6288C20.7552 36.4389 21.0722 36.2835 21.2712 36.2835C21.4702 36.2835 21.7873 36.4389 21.9758 36.6288ZM33.0623 38.3423C33.6672 39.1168 33.2246 39.913 31.7877 40.6364C31.0905 40.9874 30.7612 41.0666 30 41.0666C29.2388 41.0666 28.9095 40.9874 28.2123 40.6364C26.7754 39.913 26.3328 39.1168 26.9377 38.3423C27.3469 37.8181 27.8921 37.8561 28.6827 38.464C29.2111 38.8703 29.4415 38.9564 30 38.9564C30.5585 38.9564 30.7889 38.8703 31.3173 38.464C32.1079 37.8561 32.6531 37.8181 33.0623 38.3423ZM33.3507 58.4404C32.3342 59.6784 31.4741 60.7643 31.4398 60.8535C31.3409 61.1096 33.2188 63.8566 33.4925 63.8566C33.8011 63.8566 35.0043 62.5715 35.6551 61.5466C35.9357 61.1049 36.356 60.2918 36.5892 59.7398C37.0487 58.6523 37.6813 56.3148 37.6813 55.7048V55.3265L36.4403 55.758L35.1993 56.1896L33.3507 58.4404ZM22.3187 55.7522C22.3187 56.302 22.9942 58.7536 23.4298 59.7849C23.6526 60.312 24.0643 61.1049 24.3449 61.5466C24.9957 62.5715 26.1989 63.8566 26.5075 63.8566C26.7817 63.8566 28.6593 61.1091 28.5597 60.8535C28.5249 60.7643 27.6668 59.6784 26.653 58.4404L24.8096 56.1896L23.7387 55.8154C22.3932 55.3451 22.3187 55.3418 22.3187 55.7522ZM28.9104 57.9012C29.4495 58.546 29.9397 59.0735 30 59.0735C30.0603 59.0735 30.5505 58.546 31.0896 57.9012L32.0698 56.7288H30H27.9302L28.9104 57.9012ZM38.9288 59.4303C38.1171 61.748 37.1121 63.4267 35.6659 64.8809C34.8151 65.7365 34.3042 65.9993 33.4915 65.9993C32.3735 65.9993 31.9058 65.6377 30.7651 63.8918C30.3986 63.3307 30.0603 62.8718 30.0133 62.8718C29.9663 62.8718 29.6457 63.2946 29.3006 63.8114C28.07 65.6543 27.6298 65.9993 26.5085 65.9993C25.663 65.9993 25.2169 65.7531 24.2361 64.7456C22.7516 63.2207 21.8734 61.7399 21.057 59.3845L20.6093 58.0935L20.2247 58.3694C19.4784 58.9047 17.8429 60.6408 17.1392 61.6447C16.2117 62.9679 15.3237 64.7541 14.8506 66.2481C14.3936 67.6908 14.3484 68.5608 14.7017 69.1041C15.2508 69.9482 14.4415 69.9058 30 69.9058C45.5585 69.9058 44.7492 69.9482 45.2983 69.1041C46.1393 67.8112 44.4346 63.4171 41.9491 60.4713C41.3719 59.7872 39.483 58.0558 39.4024 58.137C39.3849 58.1547 39.1718 58.7367 38.9288 59.4303Z" fill="white"/>
</svg>
